<svg width="998" height="651" viewBox="0 0 998 651" fill="none" xmlns="http://www.w3.org/2000/svg">
<path d="M224.267 258.667C221.867 260.133 218.8 263.2 217.333 265.6C214.8 269.867 214.667 272.533 214.667 325.733C214.667 387.333 214.8 388.4 222.933 393.333C232.8 399.333 244.133 397.067 250.4 388C253.333 383.6 253.333 383.467 253.333 326.8C253.333 272.533 253.2 269.867 250.667 265.6C247.067 259.867 240.533 256 234 256C231.067 256 226.8 257.2 224.267 258.667Z" fill="#3981F6"/>
<path d="M321.867 258.533C319.6 259.867 316.4 262.667 314.8 264.8C311.867 268.4 311.867 268.533 312.267 327.467L312.667 386.533L316.667 390.667C327.867 402.4 347.6 396 350 379.733C350.4 376.533 350.667 350.267 350.4 321.333L350 268.667L346.8 264.133C341.2 256.267 329.867 253.733 321.867 258.533Z" fill="#3981F6"/>
<path d="M276.4 282.133C274.8 282.533 270.533 284.2 268 287C262.133 293.4 262.267 300.533 262.933 333.333C263.333 352.133 263.867 357.467 265.733 360.933C272.8 374.133 290 375.2 298.267 362.8C301.2 358.4 301.333 357.333 301.333 326.8C301.333 298 301.067 294.933 298.667 291.067C297.333 288.667 294.667 285.867 292.8 284.667C289.2 282.267 281.333 281.2 276.4 282.133Z" fill="white"/>
<path d="M449.333 328V374.667H456H462.667V358.667V342.667H472.4C483.467 342.667 489.2 340 492.667 333.467C495.467 328 495.467 298 492.667 291.2C489.6 283.867 482.667 281.333 464.4 281.333H449.333V328ZM478.8 296C481.067 297.333 481.333 298.933 481.333 311.733C481.333 321.2 480.8 326.667 479.733 327.733C478.8 328.667 474.667 329.333 470.4 329.333H462.667V312V294.667H469.467C473.2 294.667 477.333 295.333 478.8 296Z" fill="white"/>
<path d="M508.933 282.267C508.4 282.667 508 303.733 508 328.933V374.667H528.667H549.333V368V361.333H535.333H521.333V345.333V329.333H533.333H545.333V322.667V316H533.333H521.333V305.333V294.667H535.333H549.333V288V281.333H529.6C518.667 281.333 509.333 281.733 508.933 282.267Z" fill="white"/>
<path d="M565.2 287.6C566.533 291.2 570.8 301.6 574.533 310.933L581.333 328L574.533 344.933C570.8 354.4 566.533 364.8 565.2 368.267L562.667 374.667H569.333H575.867L581.467 360C584.533 351.867 587.6 345.733 588.133 346.267C588.667 346.8 591.467 353.333 594.4 360.667L599.733 374L605.867 374.4C609.2 374.667 612 374.4 612 373.733C612 373.2 608 362.667 603.067 350.4L594.133 328L603.067 305.6C608 293.333 612 282.8 612 282.267C612 281.6 609.2 281.333 605.867 281.6L599.733 282L594.4 295.333C591.467 302.667 588.667 309.2 588.133 309.733C587.6 310.267 584.533 304.133 581.467 296L575.733 281.333H569.2H562.667L565.2 287.6Z" fill="white"/>
<path d="M742.267 283.2C729.867 287.733 729.333 289.467 729.333 328.267C729.333 358 729.6 361.067 732 364.933C736.4 372.4 746.667 375.867 756.267 373.333C767.067 370.4 772 362.933 772 349.333V341.333H766H760V349.333C760 356.133 759.467 358 756.667 360.667C752.933 364.533 748.533 364.933 744.267 361.867C741.333 359.867 741.333 359.333 741.333 328.667C741.333 298 741.333 297.467 744.267 295.467C748.4 292.533 754.133 292.8 757.333 296C759.467 298.133 760 300.4 760 306.667V314.667H766H772V307.6C772 293.867 767.467 286.133 757.467 282.8C751.733 280.933 748.533 281.067 742.267 283.2Z" fill="#3981F6"/>
<path d="M625.333 328V372H631.333H637.333V350.667V329.333H648.8H660.133L659.733 322.933L659.333 316.667L648.4 316.267L637.333 315.867V306V296H650.667H664V290V284H644.667H625.333V328Z" fill="#3981F6"/>
<path d="M677.333 328V372H696.667H716V366V360H702.667H689.333V344.667V329.333H700.8H712.133L711.733 322.933L711.333 316.667L700.4 316.267L689.333 315.867V306V296H702.667H716V290V284H696.667H677.333V328Z" fill="#3981F6"/>
<path d="M784 290V295.867L791.733 296.267L799.333 296.667L799.733 334.267L800 372H806H812V334V296H819.333H826.667V290V284H805.333H784V290Z" fill="#3981F6"/>
<path d="M176 296.267C168.133 301.6 166.667 306.133 166.667 326.667C166.667 347.067 168.133 351.733 175.867 356.933C185.067 363.067 197.867 359.467 202.933 349.333C204.933 345.6 205.333 341.067 205.333 326.267C205.333 306.533 204.533 303.467 198.133 297.467C192.933 292.667 182.267 292 176 296.267Z" fill="white"/>
<path d="M369.733 295.333C367.333 296.4 364.133 299.2 362.667 301.6C360.133 305.6 360 307.733 360.267 327.733L360.667 349.6L364.5 355.5C373.433 363.767 387.333 361.6 394.267 352.4C398 347.6 398 347.467 398 326.667C398 308.933 397.6 305.333 395.6 302.267C390.267 294.133 379.2 291.2 369.733 295.333Z" fill="#3981F6"/>
</svg>
